grf
version=1
nRows=66
nColumns=19
inDegrees=yes
endheader
time	ground_force_1_vx	ground_force_1_vy	ground_force_1_vz	ground_force_1_px	ground_force_1_py	ground_force_1_pz	ground_moment_1_mx	ground_moment_1_my	ground_moment_1_mz	ground_force_2_vx	ground_force_2_vy	ground_force_2_vz	ground_force_2_px	ground_force_2_py	ground_force_2_pz	ground_moment_2_mx	ground_moment_2_my	ground_moment_2_mz
1.000000	0.000000	0.000000	0.000000	-0.196182	-0.000000	-0.116518	0.000000	0.000000	0.000000	-10.748788	530.962462	40.584714	0.194725	0.000000	-0.358229	0.000000	-1.827447	-0.000000
1.001000	0.000000	0.000000	0.000000	-0.195023	-0.000000	-0.114826	0.000000	0.000000	0.000000	-10.497704	530.431525	40.527349	0.194940	0.000000	-0.358238	0.000000	-1.841392	-0.000000
1.002000	0.000000	0.000000	0.000000	-0.194131	-0.000000	-0.113523	0.000000	0.000000	0.000000	-10.248504	529.914801	40.472121	0.195158	0.000000	-0.358252	0.000000	-1.855067	-0.000000
1.003000	0.000000	0.000000	0.000000	-0.193385	-0.000000	-0.112434	0.000000	0.000000	0.000000	-10.001207	529.412334	40.419027	0.195379	0.000000	-0.358272	0.000000	-1.868473	-0.000000
1.004000	0.000000	0.000000	0.000000	-0.192718	-0.000000	-0.111460	0.000000	0.000000	0.000000	-9.755834	528.924152	40.368064	0.195602	0.000000	-0.358298	0.000000	-1.881612	-0.000000
1.005000	0.000000	0.000000	0.000000	-0.192084	-0.000000	-0.110534	0.000000	0.000000	0.000000	-9.512407	528.450277	40.319230	0.195828	0.000000	-0.358330	0.000000	-1.894485	-0.000000
1.006000	0.000000	0.000000	0.000000	-0.191446	-0.000000	-0.109604	0.000000	0.000000	0.000000	-9.270950	527.990716	40.272520	0.196055	0.000000	-0.358369	0.000000	-1.907094	-0.000000
1.007000	0.000000	0.000000	0.000000	-0.190768	-0.000000	-0.108613	0.000000	0.000000	0.000000	-9.031488	527.545467	40.227932	0.196282	0.000000	-0.358415	0.000000	-1.919441	-0.000000
1.008000	0.000000	0.000000	0.000000	-0.189998	-0.000000	-0.107490	0.000000	0.000000	0.000000	-8.794048	527.114519	40.185462	0.196509	0.000000	-0.358468	0.000000	-1.931528	-0.000000
1.009000	0.000000	0.000000	0.000000	-0.189064	-0.000000	-0.106126	0.000000	0.000000	0.000000	-8.558657	526.697847	40.145107	0.196736	0.000000	-0.358528	0.000000	-1.943357	-0.000000
1.010000	0.000000	0.000000	0.000000	-0.187829	-0.000000	-0.104322	0.000000	0.000000	0.000000	-8.325346	526.295420	40.106863	0.196963	0.000000	-0.358594	0.000000	-1.954931	-0.000000
1.011000	0.000000	0.000000	0.000000	-0.185995	-0.000000	-0.101645	0.000000	0.000000	0.000000	-8.094144	525.907195	40.070727	0.197191	0.000000	-0.358665	0.000000	-1.966252	-0.000000
1.012000	0.000000	0.000000	0.000000	-0.182754	-0.000000	-0.096913	0.000000	0.000000	0.000000	-7.865084	525.533121	40.036697	0.197420	0.000000	-0.358740	0.000000	-1.977322	-0.000000
1.013000	0.000000	0.000000	0.000000	-0.174749	-0.000000	-0.085226	0.000000	0.000000	0.000000	-7.638198	525.173136	40.004769	0.197651	0.000000	-0.358817	0.000000	-1.988143	-0.000000
1.014000	0.000000	0.000000	0.000000	-0.108425	-0.000000	0.011604	0.000000	0.000000	0.000000	-7.413522	524.827173	39.974940	0.197888	0.000000	-0.358896	0.000000	-1.998719	-0.000000
1.015000	0.000000	0.000000	0.000000	-0.222540	-0.000000	-0.155000	0.000000	0.000000	0.000000	-7.191090	524.495154	39.947207	0.198130	0.000000	-0.358973	0.000000	-2.009051	-0.000000
1.016000	0.000000	0.000000	0.000000	-0.204700	-0.000000	-0.128954	0.000000	0.000000	0.000000	-6.970940	524.176993	39.921568	0.198379	0.000000	-0.359048	0.000000	-2.019143	-0.000000
1.017000	0.000000	0.000000	0.000000	-0.199757	-0.000000	-0.121737	0.000000	0.000000	0.000000	-6.753110	523.872597	39.898021	0.198633	0.000000	-0.359119	0.000000	-2.028997	-0.000000
1.018000	0.000000	0.000000	0.000000	-0.197340	-0.000000	-0.118208	0.000000	0.000000	0.000000	-6.537638	523.581866	39.876564	0.198892	0.000000	-0.359186	0.000000	-2.038616	-0.000000
1.019000	0.000000	0.000000	0.000000	-0.195840	-0.000000	-0.116018	0.000000	0.000000	0.000000	-6.324564	523.304693	39.857194	0.199156	0.000000	-0.359249	0.000000	-2.048002	-0.000000
1.020000	0.000000	0.000000	0.000000	-0.194768	-0.000000	-0.114453	0.000000	0.000000	0.000000	-6.113930	523.040962	39.839910	0.199424	0.000000	-0.359309	0.000000	-2.057158	-0.000000
1.021000	0.000000	0.000000	0.000000	-0.193923	-0.000000	-0.113219	0.000000	0.000000	0.000000	-5.905776	522.790555	39.824711	0.199697	0.000000	-0.359364	0.000000	-2.066088	-0.000000
1.022000	0.000000	0.000000	0.000000	-0.193203	-0.000000	-0.112168	0.000000	0.000000	0.000000	-5.700146	522.553344	39.811595	0.199973	0.000000	-0.359415	0.000000	-2.074793	-0.000000
1.023000	0.000000	0.000000	0.000000	-0.192548	-0.000000	-0.111213	0.000000	0.000000	0.000000	-5.497083	522.329198	39.800563	0.200252	0.000000	-0.359463	0.000000	-2.083277	-0.000000
1.024000	0.000000	0.000000	0.000000	-0.191917	-0.000000	-0.110291	0.000000	0.000000	0.000000	-5.296629	522.117979	39.791612	0.200533	0.000000	-0.359507	0.000000	-2.091543	-0.000000
1.025000	0.000000	0.000000	0.000000	-0.191273	-0.000000	-0.109350	0.000000	0.000000	0.000000	-5.098831	521.919544	39.784744	0.200816	0.000000	-0.359548	0.000000	-2.099593	-0.000000
1.026000	0.000000	0.000000	0.000000	-0.190575	-0.000000	-0.108332	0.000000	0.000000	0.000000	-4.903733	521.733748	39.779958	0.201099	0.000000	-0.359587	0.000000	-2.107430	-0.000000
1.027000	0.000000	0.000000	0.000000	-0.189772	-0.000000	-0.107159	0.000000	0.000000	0.000000	-4.711380	521.560439	39.777255	0.201384	0.000000	-0.359624	0.000000	-2.115057	-0.000000
1.028000	0.000000	0.000000	0.000000	-0.188775	-0.000000	-0.105704	0.000000	0.000000	0.000000	-4.521817	521.399462	39.776636	0.201668	0.000000	-0.359660	0.000000	-2.122477	-0.000000
1.029000	0.000000	0.000000	0.000000	-0.187421	-0.000000	-0.103727	0.000000	0.000000	0.000000	-4.335092	521.250659	39.778101	0.201953	0.000000	-0.359696	0.000000	-2.129692	-0.000000
1.030000	0.000000	0.000000	0.000000	-0.185334	-0.000000	-0.100679	0.000000	0.000000	0.000000	-4.151249	521.113867	39.781652	0.202237	0.000000	-0.359732	0.000000	-2.136706	-0.000000
1.031000	0.000000	0.000000	0.000000	-0.181394	-0.000000	-0.094928	0.000000	0.000000	0.000000	-3.970336	520.988922	39.787290	0.202520	0.000000	-0.359770	0.000000	-2.143521	-0.000000
1.032000	0.000000	0.000000	0.000000	-0.170038	-0.000000	-0.078348	0.000000	0.000000	0.000000	-3.792398	520.875658	39.795019	0.202803	0.000000	-0.359809	0.000000	-2.150140	-0.000000
1.033000	0.000000	0.000000	0.000000	7.478242	0.000000	11.087853	0.000000	0.000000	0.000000	-3.617481	520.773905	39.804839	0.203084	0.000000	-0.359850	0.000000	-2.156566	-0.000000
1.034000	0.000000	0.000000	0.000000	-0.214388	-0.000000	-0.143098	0.000000	0.000000	0.000000	-3.445632	520.683492	39.816753	0.203366	0.000000	-0.359892	0.000000	-2.162801	-0.000000
1.035000	0.000000	0.000000	0.000000	-0.202934	-0.000000	-0.126375	0.000000	0.000000	0.000000	-3.276895	520.604246	39.830765	0.203647	0.000000	-0.359936	0.000000	-2.168847	-0.000000
1.036000	0.000000	0.000000	0.000000	-0.198977	-0.000000	-0.120598	0.000000	0.000000	0.000000	-3.111315	520.535994	39.846876	0.203931	0.000000	-0.359981	0.000000	-2.174708	-0.000000
1.037000	0.000000	0.000000	0.000000	-0.196883	-0.000000	-0.117541	0.000000	0.000000	0.000000	-2.948938	520.478561	39.865091	0.204217	0.000000	-0.360026	0.000000	-2.180387	-0.000000
1.038000	0.000000	0.000000	0.000000	-0.195526	-0.000000	-0.115560	0.000000	0.000000	0.000000	-2.789808	520.431773	39.885413	0.204506	0.000000	-0.360071	0.000000	-2.185885	-0.000000
1.039000	0.000000	0.000000	0.000000	-0.194528	-0.000000	-0.114103	0.000000	0.000000	0.000000	-2.633967	520.395454	39.907845	0.204800	0.000000	-0.360116	0.000000	-2.191205	-0.000000
1.040000	0.000000	0.000000	0.000000	-0.193723	-0.000000	-0.112928	0.000000	0.000000	0.000000	-2.481458	520.369429	39.932392	0.205099	0.000000	-0.360160	0.000000	-2.196349	-0.000000
1.041000	0.000000	0.000000	0.000000	-0.193025	-0.000000	-0.111909	0.000000	0.000000	0.000000	-2.332322	520.353524	39.959056	0.205402	0.000000	-0.360202	0.000000	-2.201321	-0.000000
1.042000	0.000000	0.000000	0.000000	-0.192381	-0.000000	-0.110968	0.000000	0.000000	0.000000	-2.186601	520.347566	39.987843	0.205711	0.000000	-0.360244	0.000000	-2.206122	-0.000000
1.043000	0.000000	0.000000	0.000000	-0.191750	-0.000000	-0.110047	0.000000	0.000000	0.000000	-2.044333	520.351381	40.018756	0.206025	0.000000	-0.360286	0.000000	-2.210754	-0.000000
1.044000	0.000000	0.000000	0.000000	-0.191095	-0.000000	-0.109092	0.000000	0.000000	0.000000	-1.905557	520.364798	40.051800	0.206344	0.000000	-0.360326	0.000000	-2.215221	-0.000000
1.045000	0.000000	0.000000	0.000000	-0.190376	-0.000000	-0.108041	0.000000	0.000000	0.000000	-1.770309	520.387648	40.086978	0.206668	0.000000	-0.360367	0.000000	-2.219524	-0.000000
1.046000	0.000000	0.000000	0.000000	-0.189532	-0.000000	-0.106809	0.000000	0.000000	0.000000	-1.638624	520.419764	40.124295	0.206997	0.000000	-0.360407	0.000000	-2.223665	-0.000000
1.047000	0.000000	0.000000	0.000000	-0.188462	-0.000000	-0.105247	0.000000	0.000000	0.000000	-1.510537	520.460979	40.163756	0.207330	0.000000	-0.360449	0.000000	-2.227646	-0.000000
1.048000	0.000000	0.000000	0.000000	-0.186965	-0.000000	-0.103062	0.000000	0.000000	0.000000	-1.386079	520.511132	40.205363	0.207668	0.000000	-0.360492	0.000000	-2.231471	-0.000000
1.049000	0.000000	0.000000	0.000000	-0.184556	-0.000000	-0.099544	0.000000	0.000000	0.000000	-1.265281	520.570063	40.249122	0.208008	0.000000	-0.360539	0.000000	-2.235140	-0.000000
1.050000	0.000000	0.000000	0.000000	-0.179639	-0.000000	-0.092365	0.000000	0.000000	0.000000	-1.148171	520.637613	40.295036	0.208350	0.000000	-0.360591	0.000000	-2.238656	-0.000000
1.051000	0.000000	0.000000	0.000000	-0.161997	-0.000000	-0.066608	0.000000	0.000000	0.000000	-1.034776	520.713631	40.343108	0.208692	0.000000	-0.360647	0.000000	-2.242020	-0.000000
1.052000	0.000000	0.000000	0.000000	-0.277741	-0.000000	-0.235591	0.000000	0.000000	0.000000	-0.925120	520.797964	40.393343	0.209036	0.000000	-0.360709	0.000000	-2.245235	-0.000000
1.053000	0.000000	0.000000	0.000000	-0.209629	-0.000000	-0.136149	0.000000	0.000000	0.000000	-0.819225	520.890469	40.445743	0.209380	0.000000	-0.360775	0.000000	-2.248303	-0.000000
1.054000	0.000000	0.000000	0.000000	-0.201567	-0.000000	-0.124380	0.000000	0.000000	0.000000	-0.717111	520.991001	40.500311	0.209725	0.000000	-0.360847	0.000000	-2.251226	-0.000000
1.055000	0.000000	0.000000	0.000000	-0.198313	-0.000000	-0.119628	0.000000	0.000000	0.000000	-0.618796	521.099423	40.557050	0.210071	0.000000	-0.360922	0.000000	-2.254005	-0.000000
1.056000	0.000000	0.000000	0.000000	-0.196474	-0.000000	-0.116944	0.000000	0.000000	0.000000	-0.524294	521.215601	40.615962	0.210419	0.000000	-0.361000	0.000000	-2.256642	-0.000000
1.057000	0.000000	0.000000	0.000000	-0.195236	-0.000000	-0.115137	0.000000	0.000000	0.000000	-0.433619	521.339405	40.677050	0.210769	0.000000	-0.361079	0.000000	-2.259139	-0.000000
1.058000	0.000000	0.000000	0.000000	-0.194301	-0.000000	-0.113771	0.000000	0.000000	0.000000	-0.346779	521.470713	40.740313	0.211120	0.000000	-0.361158	0.000000	-2.261499	-0.000000
1.059000	0.000000	0.000000	0.000000	-0.193531	-0.000000	-0.112647	0.000000	0.000000	0.000000	-0.263783	521.609403	40.805754	0.211473	0.000000	-0.361237	0.000000	-2.263721	-0.000000
1.060000	0.000000	0.000000	0.000000	-0.192852	-0.000000	-0.111656	0.000000	0.000000	0.000000	-0.184634	521.755362	40.873373	0.211828	0.000000	-0.361315	0.000000	-2.265809	-0.000000
1.061000	0.000000	0.000000	0.000000	-0.192214	-0.000000	-0.110725	0.000000	0.000000	0.000000	-0.109334	521.908482	40.943170	0.212186	0.000000	-0.361390	0.000000	-2.267764	-0.000000
1.062000	0.000000	0.000000	0.000000	-0.191581	-0.000000	-0.109800	0.000000	0.000000	0.000000	-0.037880	522.068657	41.015144	0.212548	0.000000	-0.361463	0.000000	-2.269588	-0.000000
1.063000	0.000000	0.000000	0.000000	-0.190914	-0.000000	-0.108826	0.000000	0.000000	0.000000	0.029732	522.235791	41.089293	0.212913	0.000000	-0.361532	-0.000000	-2.271283	-0.000000
1.064000	0.000000	0.000000	0.000000	-0.190168	-0.000000	-0.107738	0.000000	0.000000	0.000000	0.093509	522.409791	41.165617	0.213283	0.000000	-0.361600	-0.000000	-2.272849	-0.000000
1.065000	0.000000	0.000000	0.000000	-0.189277	-0.000000	-0.106436	0.000000	0.000000	0.000000	0.153464	522.590570	41.244112	0.213657	0.000000	-0.361666	-0.000000	-2.274290	-0.000000
